<?xml version="1.0" standalone="no"?>
<!DOCTYPE svg PUBLIC "-//W3C//DTD SVG 20010904//EN"
 "http://www.w3.org/TR/2001/REC-SVG-20010904/DTD/svg10.dtd">
<svg version="1.0" xmlns="http://www.w3.org/2000/svg"
 width="512.000000pt" height="512.000000pt" viewBox="0 0 512.000000 512.000000"
 preserveAspectRatio="xMidYMid meet">
<metadata>
Created by potrace 1.14, written by Peter Selinger 2001-2017
</metadata>
<g transform="translate(0.000000,512.000000) scale(0.100000,-0.100000)"
fill="#000000" stroke="none">
<path d="M2370 5105 c-357 -50 -853 -240 -1204 -460 -686 -431 -1075 -1040
-1154 -1808 -15 -150 -8 -542 13 -707 25 -192 140 -709 162 -731 5 -5 8 38 8
94 0 56 2 108 4 115 2 7 21 -33 42 -89 64 -168 186 -384 307 -544 26 -33 49
-62 52 -65 3 -3 23 -27 45 -55 22 -27 91 -102 155 -166 230 -231 525 -438 830
-585 63 -31 123 -60 133 -65 28 -15 20 0 -38 76 -30 40 -55 75 -55 78 0 4 24
-3 52 -14 213 -86 454 -150 621 -166 79 -8 208 -8 247 0 14 3 36 6 49 6 31 1
19 13 -16 17 -93 9 -148 18 -228 35 -49 11 -103 23 -118 25 -16 3 -86 25 -156
49 -474 162 -857 452 -1140 864 l-44 63 89 -64 c100 -71 241 -165 294 -196 19
-11 64 -36 100 -57 69 -39 309 -161 373 -189 20 -9 53 -23 72 -31 104 -46 304
-114 423 -145 113 -28 171 -39 312 -59 66 -9 407 -8 446 2 12 3 37 8 55 11
255 41 512 178 709 376 68 68 91 93 155 170 l20 24 -25 -15 c-14 -9 -56 -36
-95 -61 -219 -141 -544 -256 -805 -286 -82 -9 -377 -9 -452 0 -181 23 -422 92
-590 170 -215 99 -447 247 -553 353 -223 222 -419 549 -496 830 -45 166 -58
270 -54 445 1 91 6 181 10 200 33 178 88 337 166 490 81 156 116 206 229 321
147 149 473 312 816 407 194 54 194 54 34 -53 -80 -53 -178 -117 -217 -142
-40 -25 -73 -47 -73 -48 0 -4 342 113 490 168 140 51 321 126 355 147 40 24
112 36 210 35 78 -2 239 -13 273 -20 9 -1 46 -6 82 -10 97 -11 148 -37 226
-117 87 -89 110 -100 182 -95 34 3 73 -1 96 -9 53 -19 175 -94 270 -166 118
-90 124 -97 142 -152 24 -73 80 -177 122 -226 46 -55 127 -107 189 -121 82
-20 103 -30 139 -73 64 -75 138 -257 160 -394 8 -50 13 -49 19 3 3 21 7 50 10
64 9 56 17 255 17 446 l0 200 27 -86 c64 -198 139 -272 207 -204 20 20 24 34
23 67 -5 116 -139 353 -382 677 -59 79 -106 145 -104 148 9 8 154 -31 201 -54
26 -14 44 -19 40 -11 -4 7 -36 55 -71 106 -35 51 -63 95 -63 97 0 6 63 -17 98
-37 38 -21 41 -10 15 43 -66 135 -194 255 -407 381 -56 34 -75 68 -57 102 21
39 51 50 102 36 24 -7 46 -12 49 -13 3 0 25 -6 49 -14 57 -17 71 -16 71 2 0
54 -360 310 -605 430 -146 71 -376 144 -535 169 -35 6 -72 12 -120 21 -14 3
-47 7 -75 10 -27 3 -61 8 -75 10 -14 2 -54 7 -90 10 -36 4 -83 8 -105 11 -116
12 -596 12 -685 -1z"/>
<path d="M2837 3211 c-3 -9 -55 -162 -116 -341 -61 -178 -111 -327 -111 -330
0 -7 110 -3 117 4 5 4 197 568 227 663 7 22 5 23 -53 22 -46 -1 -60 -5 -64
-18z"/>
<path d="M2480 3132 c-40 -3 -51 -9 -97 -59 -29 -31 -80 -84 -113 -119 -33
-34 -60 -65 -60 -69 0 -3 6 -12 13 -19 26 -27 202 -219 207 -226 6 -8 120 -11
120 -2 0 4 -92 107 -189 211 -26 28 -29 36 -19 50 21 26 131 142 161 170 61
55 56 68 -23 63z"/>
<path d="M3030 3129 c0 -3 49 -57 110 -120 60 -63 109 -118 109 -124 1 -5 -49
-62 -109 -125 -60 -63 -109 -119 -110 -123 0 -4 27 -7 61 -6 45 2 63 7 73 21
7 10 46 53 86 95 40 43 86 92 101 108 l28 30 -117 124 -118 123 -57 2 c-31 0
-57 -2 -57 -5z"/>
<path d="M2309 2391 c0 -3 0 -30 1 -58 l1 -53 -436 0 -437 0 7 -27 c27 -108
265 -263 619 -402 215 -85 297 -135 332 -203 47 -90 -57 -187 -283 -268 -35
-13 -63 -25 -64 -29 0 -3 -1 -30 -2 -59 l-2 -52 693 0 693 0 -3 57 -3 58 -70
42 c-136 84 -208 165 -238 268 -23 79 -12 149 35 235 124 223 389 358 740 379
14 1 17 11 17 59 l-1 59 -799 0 c-439 0 -799 -3 -800 -6z"/>
</g>
</svg>
